<svg xmlns="http://www.w3.org/2000/svg" viewBox="0 0 512 512" id="sparklers"><circle cx="256" cy="256" r="20" fill="#f66"></circle><path fill="#ff4e4e" d="M256 236a19.922 19.922 0 0 0-7.5 1.467 19.988 19.988 0 0 1 0 37.066A19.997 19.997 0 1 0 256 236Z"></path><path fill="#66c1ff" d="M256.004 215.948a7.502 7.502 0 0 1-6.888-4.526c-.84-1.942-1.641-3.92-2.382-5.877a7.5 7.5 0 0 1 14.029-5.31c.659 1.743 1.373 3.504 2.12 5.235a7.503 7.503 0 0 1-6.88 10.478zm-9.037-31.659a7.501 7.501 0 0 1-7.414-6.434c-.547-3.804-.92-7.656-1.108-11.448a7.5 7.5 0 0 1 14.982-.744c.165 3.329.492 6.713.973 10.058a7.5 7.5 0 0 1-6.357 8.49 7.597 7.597 0 0 1-1.076.078zm.884-37.637a7.508 7.508 0 0 1-7.37-8.936 117.582 117.582 0 0 1 2.763-11.204 7.5 7.5 0 0 1 14.368 4.305 102.625 102.625 0 0 0-2.408 9.768 7.502 7.502 0 0 1-7.353 6.067zm13.374-35.179a7.502 7.502 0 0 1-6.464-11.294 131.158 131.158 0 0 1 6.23-9.623 7.5 7.5 0 1 1 12.225 8.692 116.025 116.025 0 0 0-5.514 8.517 7.498 7.498 0 0 1-6.477 3.708zm23.641-29.383a7.5 7.5 0 0 1-5.153-12.95 163.417 163.417 0 0 1 8.502-7.493 7.5 7.5 0 1 1 9.522 11.59 148.633 148.633 0 0 0-7.72 6.803 7.473 7.473 0 0 1-5.15 2.05zm30.373-22.468a7.501 7.501 0 0 1-3.694-14.032 112.563 112.563 0 0 1 5.679-3.014 7.5 7.5 0 1 1 6.609 13.465 98.083 98.083 0 0 0-4.913 2.61 7.468 7.468 0 0 1-3.68.971z"></path><path fill="#f66" d="M222.373 229.876a7.469 7.469 0 0 1-2.762-.53c-1.964-.778-3.929-1.61-5.84-2.47a7.5 7.5 0 1 1 6.164-13.675c1.702.766 3.452 1.507 5.203 2.201a7.501 7.501 0 0 1-2.765 14.474zm-28.77-16.006a7.468 7.468 0 0 1-4.489-1.496 124.044 124.044 0 0 1-8.88-7.312 7.5 7.5 0 1 1 10.067-11.121 108.917 108.917 0 0 0 7.802 6.424 7.5 7.5 0 0 1-4.5 13.505zm-25.99-27.227a7.492 7.492 0 0 1-6.227-3.31 117.414 117.414 0 0 1-5.97-9.878 7.5 7.5 0 1 1 13.205-7.116 102.527 102.527 0 0 0 5.204 8.612 7.501 7.501 0 0 1-6.213 11.692zm-15.42-34.346a7.503 7.503 0 0 1-7.253-5.608c-.952-3.648-1.759-7.42-2.399-11.211a7.5 7.5 0 1 1 14.791-2.497c.567 3.358 1.28 6.696 2.122 9.92a7.507 7.507 0 0 1-7.262 9.396zm-4.055-37.486-.213-.003a7.5 7.5 0 0 1-7.288-7.707c.104-3.73.345-7.535.715-11.308a7.5 7.5 0 1 1 14.929 1.465c-.337 3.427-.555 6.88-.65 10.262a7.5 7.5 0 0 1-7.493 7.29zm5.585-37.357a7.507 7.507 0 0 1-7.23-9.512c.781-2.808 1.456-4.893 1.885-6.148a7.5 7.5 0 0 1 14.194 4.849 97.674 97.674 0 0 0-1.627 5.318 7.504 7.504 0 0 1-7.222 5.493z"></path><path fill="#ff8e66" d="M202.892 265.754a7.501 7.501 0 0 1-2.657-14.516c1.743-.66 3.504-1.374 5.235-2.122a7.5 7.5 0 1 1 5.952 13.768c-1.942.84-3.92 1.641-5.877 2.382a7.478 7.478 0 0 1-2.653.488zm-36.864 7.81a7.5 7.5 0 0 1-.366-14.99 109.2 109.2 0 0 0 10.06-.974 7.5 7.5 0 1 1 2.133 14.848c-3.8.546-7.65.918-11.447 1.107-.127.007-.254.01-.38.01zm-26.869-1.905a7.51 7.51 0 0 1-1.443-.14 117.436 117.436 0 0 1-11.204-2.763 7.5 7.5 0 0 1 4.305-14.368c3.199.958 6.485 1.768 9.768 2.408a7.5 7.5 0 0 1-1.426 14.863zm-35.193-13.39a7.466 7.466 0 0 1-3.785-1.03 130.822 130.822 0 0 1-9.624-6.23 7.5 7.5 0 1 1 8.691-12.225 115.854 115.854 0 0 0 8.517 5.514 7.5 7.5 0 0 1-3.8 13.972zM74.59 234.635a7.479 7.479 0 0 1-5.451-2.347 163.518 163.518 0 0 1-7.493-8.504 7.5 7.5 0 1 1 11.59-9.521 148.06 148.06 0 0 0 6.802 7.72 7.5 7.5 0 0 1-5.448 12.652zM52.127 204.27a7.498 7.498 0 0 1-6.537-3.813 112.78 112.78 0 0 1-3.014-5.68 7.5 7.5 0 0 1 13.465-6.61 97.64 97.64 0 0 0 2.61 4.914 7.502 7.502 0 0 1-6.524 11.189z"></path><path fill="#ff66b3" d="M220.034 302.649a7.504 7.504 0 0 1-6.833-10.584c.768-1.705 1.509-3.456 2.2-5.202a7.5 7.5 0 0 1 13.946 5.525 137.842 137.842 0 0 1-2.471 5.841 7.501 7.501 0 0 1-6.842 4.42zm-112.72 68.716c-.07 0-.141 0-.213-.003-3.73-.104-7.535-.344-11.308-.715a7.5 7.5 0 1 1 1.465-14.928c3.427.336 6.88.555 10.262.65a7.5 7.5 0 0 1-.206 14.996zm26.906-1.801a7.5 7.5 0 0 1-1.24-14.897 115.83 115.83 0 0 0 9.921-2.122 7.5 7.5 0 1 1 3.787 14.514c-3.648.952-7.42 1.76-11.21 2.4a7.556 7.556 0 0 1-1.258.105zm35.683-12.081a7.501 7.501 0 0 1-3.564-14.104 102.53 102.53 0 0 0 8.611-5.204 7.5 7.5 0 0 1 8.382 12.44 117.414 117.414 0 0 1-9.878 5.969 7.47 7.47 0 0 1-3.551.899zm29.596-23.251a7.5 7.5 0 0 1-5.558-12.534c2.24-2.475 4.402-5.1 6.425-7.801a7.5 7.5 0 0 1 12.008 8.99c-2.3 3.072-4.761 6.06-7.313 8.879a7.48 7.48 0 0 1-5.562 2.466zm-129.543 31.55a7.5 7.5 0 0 1-2.014-.276 112.314 112.314 0 0 1-6.148-1.884 7.5 7.5 0 0 1 4.849-14.194c1.067.364 2.856.943 5.318 1.627a7.501 7.501 0 0 1-2.005 14.728z"></path><path fill="#a966ff" d="M258.253 316.612a7.502 7.502 0 0 1-7.016-4.847 122.929 122.929 0 0 0-2.121-5.235 7.5 7.5 0 1 1 13.768-5.952c.84 1.943 1.641 3.92 2.383 5.878a7.505 7.505 0 0 1-7.014 10.156zM219.027 452.06a7.5 7.5 0 0 1-4.766-13.295 148.502 148.502 0 0 0 7.72-6.803 7.5 7.5 0 0 1 10.306 10.9 163.457 163.457 0 0 1-8.503 7.493 7.47 7.47 0 0 1-4.757 1.705zm25.863-27.46a7.5 7.5 0 0 1-6.106-11.847 115.854 115.854 0 0 0 5.514-8.517 7.5 7.5 0 0 1 12.941 7.584 130.822 130.822 0 0 1-6.23 9.624 7.49 7.49 0 0 1-6.119 3.155zm16.684-33.762a7.506 7.506 0 0 1-7.187-9.655 102.154 102.154 0 0 0 2.408-9.766 7.5 7.5 0 1 1 14.724 2.867 117.001 117.001 0 0 1-2.764 11.206 7.502 7.502 0 0 1-7.18 5.348zm4.485-37.372a7.5 7.5 0 0 1-7.485-7.126 109.646 109.646 0 0 0-.974-10.06 7.5 7.5 0 0 1 14.847-2.134c.546 3.797.918 7.648 1.108 11.446a7.5 7.5 0 0 1-7.117 7.865c-.126.006-.253.01-.38.01zm-74.582 116.728a7.501 7.501 0 0 1-3.31-14.234 97.546 97.546 0 0 0 4.913-2.61 7.5 7.5 0 1 1 7.376 13.062 113.118 113.118 0 0 1-5.68 3.013 7.47 7.47 0 0 1-3.299.77z"></path><path fill="#6671ff" d="M295.143 299.464a7.475 7.475 0 0 1-3.08-.665 123.005 123.005 0 0 0-5.2-2.201 7.5 7.5 0 1 1 5.527-13.945c1.96.778 3.926 1.61 5.84 2.473a7.501 7.501 0 0 1-3.087 14.338zm68.05 123.51c-.246 0-.492-.011-.74-.036a7.5 7.5 0 0 1-6.733-8.195c.335-3.424.553-6.877.648-10.264a7.5 7.5 0 0 1 14.994.42 162.768 162.768 0 0 1-.715 11.307 7.5 7.5 0 0 1-7.455 6.769zm-1.14-37.703a7.5 7.5 0 0 1-7.387-6.255 115.428 115.428 0 0 0-2.121-9.918 7.5 7.5 0 1 1 14.514-3.787 130.074 130.074 0 0 1 2.398 11.213 7.505 7.505 0 0 1-7.404 8.747zm-12.064-35.667a7.5 7.5 0 0 1-6.61-3.943 102.356 102.356 0 0 0-5.204-8.612 7.5 7.5 0 1 1 12.44-8.382 117.47 117.47 0 0 1 5.97 9.878 7.503 7.503 0 0 1-6.596 11.06zM326.73 320a7.47 7.47 0 0 1-5.032-1.94 108.877 108.877 0 0 0-7.8-6.424 7.5 7.5 0 0 1 8.989-12.009 123.712 123.712 0 0 1 8.88 7.314 7.5 7.5 0 0 1-5.037 13.059zm29.796 135.285a7.505 7.505 0 0 1-7.097-9.929c.297-.867.902-2.71 1.629-5.318a7.5 7.5 0 1 1 14.449 4.024c-.785 2.823-1.46 4.9-1.885 6.148a7.503 7.503 0 0 1-7.096 5.075z"></path><path fill="#63ea86" d="M303.558 263.502a7.501 7.501 0 0 1-2.98-14.386c1.938-.839 3.916-1.64 5.878-2.383a7.5 7.5 0 0 1 5.309 14.03c-1.746.66-3.507 1.374-5.235 2.12a7.473 7.473 0 0 1-2.972.619zm141.003 36.976a7.484 7.484 0 0 1-5.8-2.74 147.539 147.539 0 0 0-6.8-7.719 7.5 7.5 0 0 1 10.898-10.306 162.916 162.916 0 0 1 7.494 8.505 7.5 7.5 0 0 1-5.792 12.26zm-27.47-25.874a7.463 7.463 0 0 1-4.34-1.388 115.932 115.932 0 0 0-8.516-5.514 7.5 7.5 0 0 1 7.584-12.941c3.25 1.904 6.487 4 9.624 6.23a7.5 7.5 0 0 1-4.352 13.613zm-33.752-16.674a7.518 7.518 0 0 1-2.156-.317 102.482 102.482 0 0 0-9.768-2.41 7.5 7.5 0 1 1 2.87-14.722c3.765.734 7.535 1.664 11.204 2.763a7.501 7.501 0 0 1-2.15 14.686zm-48.137-3.452a7.5 7.5 0 0 1-1.057-14.925c3.804-.547 7.656-.92 11.449-1.108a7.5 7.5 0 1 1 .744 14.982c-3.33.165-6.714.492-10.06.973a7.587 7.587 0 0 1-1.076.078zm127.495 73.552a7.5 7.5 0 0 1-6.74-4.203 97.349 97.349 0 0 0-2.607-4.906 7.5 7.5 0 1 1 13.06-7.376 110.136 110.136 0 0 1 3.017 5.684 7.503 7.503 0 0 1-6.73 10.8z"></path><path fill="#ffe966" d="M289.624 229.876a7.504 7.504 0 0 1-6.97-10.263 137.402 137.402 0 0 1 2.47-5.84 7.5 7.5 0 1 1 13.676 6.16 123.231 123.231 0 0 0-2.201 5.203 7.502 7.502 0 0 1-6.975 4.74zm16.001-28.767a7.5 7.5 0 0 1-5.999-11.994c2.3-3.073 4.76-6.062 7.313-8.881a7.5 7.5 0 1 1 11.12 10.068 108.823 108.823 0 0 0-6.423 7.8 7.489 7.489 0 0 1-6.011 3.007zm27.24-26.003a7.5 7.5 0 0 1-4.198-13.72 117.727 117.727 0 0 1 9.877-5.97 7.5 7.5 0 1 1 7.117 13.205 102.42 102.42 0 0 0-8.611 5.204 7.468 7.468 0 0 1-4.185 1.281zM367.2 159.7a7.501 7.501 0 0 1-1.888-14.759 131.142 131.142 0 0 1 11.21-2.399 7.5 7.5 0 1 1 2.498 14.791c-3.36.567-6.698 1.281-9.921 2.122a7.493 7.493 0 0 1-1.899.245zm48.284-3.382q-.367 0-.74-.036a147.725 147.725 0 0 0-10.264-.65 7.5 7.5 0 1 1 .418-14.994c3.73.104 7.535.345 11.31.715a7.5 7.5 0 0 1-.724 14.965zm32.298 6.66a7.481 7.481 0 0 1-2.424-.404 98.152 98.152 0 0 0-5.319-1.628 7.5 7.5 0 1 1 4.02-14.451c2.8.778 4.887 1.454 6.145 1.883a7.501 7.501 0 0 1-2.422 14.6z"></path><path fill="#ff66b3" d="m228.013 1.771-7.934 7.235a1.577 1.577 0 0 1-2.33-.227l-6.388-8.63a.367.367 0 0 0-.662.202l-.494 10.726a1.577 1.577 0 0 1-1.808 1.486l-10.62-1.584a.367.367 0 0 0-.325.61l7.235 7.934a1.577 1.577 0 0 1-.227 2.33l-8.63 6.388a.367.367 0 0 0 .202.662l10.725.495a1.577 1.577 0 0 1 1.487 1.807l-1.584 10.62a.367.367 0 0 0 .61.325l7.934-7.234a1.577 1.577 0 0 1 2.33.226l6.388 8.63a.367.367 0 0 0 .662-.202l.494-10.725a1.577 1.577 0 0 1 1.808-1.487l10.62 1.585a.367.367 0 0 0 .325-.611l-7.235-7.934a1.577 1.577 0 0 1 .227-2.33l8.63-6.388a.367.367 0 0 0-.202-.662l-10.725-.494a1.577 1.577 0 0 1-1.487-1.808l1.585-10.62a.367.367 0 0 0-.611-.325Z"></path><path fill="#6671ff" d="m56.443 96.023-.494 10.726a1.577 1.577 0 0 1-1.808 1.486l-10.62-1.584a.367.367 0 0 0-.325.61l7.235 7.934a1.576 1.576 0 0 1-.227 2.33l-8.63 6.388a.367.367 0 0 0 .202.662l10.726.495a1.577 1.577 0 0 1 1.486 1.807l-1.584 10.62a.367.367 0 0 0 .61.325l7.934-7.234a1.577 1.577 0 0 1 2.33.227l6.388 8.63a.367.367 0 0 0 .662-.203l.495-10.725a1.577 1.577 0 0 1 1.807-1.487l10.62 1.585a.367.367 0 0 0 .325-.611l-7.234-7.934a1.577 1.577 0 0 1 .226-2.33l8.63-6.388a.367.367 0 0 0-.202-.662l-10.725-.494a1.577 1.577 0 0 1-1.487-1.808l1.585-10.62a.367.367 0 0 0-.611-.325l-7.934 7.235a1.577 1.577 0 0 1-2.33-.227l-6.388-8.63a.367.367 0 0 0-.662.202Z"></path><path fill="#66c1ff" d="m1.771 283.987 7.235 7.934a1.577 1.577 0 0 1-.227 2.33l-8.63 6.388a.367.367 0 0 0 .202.662l10.726.494a1.577 1.577 0 0 1 1.486 1.808l-1.584 10.62a.367.367 0 0 0 .61.325l7.934-7.235a1.577 1.577 0 0 1 2.33.227l6.388 8.63a.367.367 0 0 0 .662-.202l.495-10.725a1.577 1.577 0 0 1 1.807-1.487l10.62 1.584a.367.367 0 0 0 .325-.61l-7.234-7.934a1.577 1.577 0 0 1 .226-2.33l8.63-6.388a.367.367 0 0 0-.202-.662l-10.725-.494a1.577 1.577 0 0 1-1.487-1.808l1.585-10.62a.367.367 0 0 0-.611-.325l-7.934 7.235a1.577 1.577 0 0 1-2.33-.227l-6.388-8.63a.367.367 0 0 0-.662.202l-.494 10.725a1.577 1.577 0 0 1-1.808 1.487l-10.62-1.584a.367.367 0 0 0-.325.61Z"></path><path fill="#63ea86" d="m96.023 455.557 10.726.494a1.577 1.577 0 0 1 1.486 1.808l-1.584 10.62a.367.367 0 0 0 .61.325l7.934-7.235a1.576 1.576 0 0 1 2.33.227l6.388 8.63a.367.367 0 0 0 .662-.202l.495-10.726a1.577 1.577 0 0 1 1.807-1.486l10.62 1.584a.367.367 0 0 0 .325-.61l-7.234-7.934a1.577 1.577 0 0 1 .227-2.33l8.63-6.388a.367.367 0 0 0-.203-.662l-10.725-.495a1.577 1.577 0 0 1-1.487-1.807l1.585-10.62a.367.367 0 0 0-.611-.325l-7.934 7.235a1.577 1.577 0 0 1-2.33-.227l-6.388-8.63a.367.367 0 0 0-.662.202l-.494 10.725a1.577 1.577 0 0 1-1.808 1.487l-10.62-1.585a.367.367 0 0 0-.325.611l7.235 7.934a1.577 1.577 0 0 1-.227 2.33l-8.63 6.388a.367.367 0 0 0 .202.662Z"></path><path fill="#ffe966" d="m283.987 510.229 7.934-7.235a1.577 1.577 0 0 1 2.33.227l6.388 8.63a.367.367 0 0 0 .662-.202l.494-10.726a1.577 1.577 0 0 1 1.808-1.486l10.62 1.584a.367.367 0 0 0 .325-.61l-7.235-7.934a1.577 1.577 0 0 1 .227-2.33l8.63-6.388a.367.367 0 0 0-.202-.662l-10.725-.495a1.577 1.577 0 0 1-1.487-1.807l1.584-10.62a.367.367 0 0 0-.61-.325l-7.934 7.234a1.577 1.577 0 0 1-2.33-.226l-6.388-8.63a.367.367 0 0 0-.662.202l-.494 10.725a1.577 1.577 0 0 1-1.808 1.487l-10.62-1.585a.367.367 0 0 0-.325.611l7.235 7.934a1.577 1.577 0 0 1-.227 2.33l-8.63 6.388a.367.367 0 0 0 .202.662l10.725.494a1.577 1.577 0 0 1 1.487 1.808l-1.584 10.62a.367.367 0 0 0 .61.325Z"></path><path fill="#f66" d="m455.557 415.977.494-10.726a1.577 1.577 0 0 1 1.808-1.486l10.62 1.584a.367.367 0 0 0 .325-.61l-7.235-7.934a1.576 1.576 0 0 1 .227-2.33l8.63-6.388a.367.367 0 0 0-.202-.662l-10.726-.495a1.577 1.577 0 0 1-1.486-1.807l1.584-10.62a.367.367 0 0 0-.61-.325l-7.934 7.234a1.577 1.577 0 0 1-2.33-.227l-6.388-8.63a.367.367 0 0 0-.662.203l-.495 10.725a1.577 1.577 0 0 1-1.807 1.487l-10.62-1.585a.367.367 0 0 0-.325.611l7.235 7.934a1.577 1.577 0 0 1-.227 2.33l-8.63 6.388a.367.367 0 0 0 .202.662l10.725.494a1.577 1.577 0 0 1 1.487 1.808l-1.585 10.62a.367.367 0 0 0 .611.325l7.934-7.235a1.577 1.577 0 0 1 2.33.227l6.388 8.63a.367.367 0 0 0 .662-.202Z"></path><path fill="#a966ff" d="m510.229 228.013-7.235-7.934a1.577 1.577 0 0 1 .227-2.33l8.63-6.388a.367.367 0 0 0-.202-.662l-10.726-.494a1.577 1.577 0 0 1-1.486-1.808l1.584-10.62a.367.367 0 0 0-.61-.325l-7.934 7.235a1.577 1.577 0 0 1-2.33-.227l-6.388-8.63a.367.367 0 0 0-.662.202l-.495 10.725a1.577 1.577 0 0 1-1.807 1.487l-10.62-1.584a.367.367 0 0 0-.325.61l7.234 7.934a1.577 1.577 0 0 1-.226 2.33l-8.63 6.388a.367.367 0 0 0 .202.662l10.725.494a1.577 1.577 0 0 1 1.487 1.808l-1.585 10.62a.367.367 0 0 0 .611.325l7.934-7.235a1.577 1.577 0 0 1 2.33.227l6.388 8.63a.367.367 0 0 0 .662-.202l.494-10.725a1.577 1.577 0 0 1 1.808-1.487l10.62 1.585a.367.367 0 0 0 .325-.611Z"></path><path fill="#ffc166" d="m415.977 56.443-10.726-.494a1.577 1.577 0 0 1-1.486-1.808l1.584-10.62a.367.367 0 0 0-.61-.325l-7.934 7.235a1.576 1.576 0 0 1-2.33-.227l-6.388-8.63a.367.367 0 0 0-.662.202l-.495 10.726a1.577 1.577 0 0 1-1.807 1.486l-10.62-1.584a.367.367 0 0 0-.325.61l7.234 7.934a1.577 1.577 0 0 1-.227 2.33l-8.63 6.388a.367.367 0 0 0 .203.662l10.725.495a1.577 1.577 0 0 1 1.487 1.807l-1.585 10.62a.367.367 0 0 0 .611.325l7.934-7.234a1.577 1.577 0 0 1 2.33.226l6.388 8.63a.367.367 0 0 0 .662-.202l.494-10.725a1.577 1.577 0 0 1 1.808-1.487l10.62 1.585a.367.367 0 0 0 .325-.611l-7.235-7.934a1.577 1.577 0 0 1 .227-2.33l8.63-6.388a.367.367 0 0 0-.202-.662Z"></path><path fill="#ffb74e" d="m375.852 54.85.102-2.23-1.45-.216a.367.367 0 0 0-.326.61zm8.003 25.251-.47 3.149a.367.367 0 0 0 .611.325"></path></svg>